<svg width="128" height="128" viewBox="0 0 128 128" fill="none" xmlns="http://www.w3.org/2000/svg">
<path d="M10.3105 98.805L36.884 77.9742C26.5276 65.7895 13.6021 56.9023 0.997729 53.2428C0.837164 54.208 0.596302 55.1731 0.475878 56.1785C-1.41076 71.701 2.40271 86.6202 10.3105 98.805Z" fill="url(#paint0_linear_1434_4)"/>
<path d="M26.2868 12.225L62.173 58.1489L77.7477 45.9642C67.2307 31.4068 61.2096 15.0399 60.7681 0C48.0433 0.603205 36.1615 5.02674 26.2868 12.225Z" fill="url(#paint1_linear_1434_4)"/>
<path d="M98.6212 117.866L60.8083 69.4489L48.1236 79.3817C59.1624 94.7433 65.3441 112.437 65.1033 128C77.3062 127.799 88.8268 124.18 98.6212 117.866Z" fill="url(#paint2_linear_1434_4)"/>
<path d="M115.761 26.3801L89.0275 47.3314C100.107 60.3607 113.835 69.4892 127.362 72.6661C127.402 72.3444 127.523 72.0629 127.523 71.7411C129.57 55.0123 124.914 39.0474 115.761 26.3801Z" fill="url(#paint3_linear_1434_4)"/>
<path d="M20.105 17.3321C12.157 24.852 6.09571 34.4631 2.80413 45.4414L2.76396 45.4816C17.0944 49.503 31.6657 59.4759 43.1862 73.0681L55.8708 63.1354L20.105 17.3321Z" fill="url(#paint4_linear_1434_4)"/>
<path d="M105.084 113.041C114.919 104.797 122.305 93.5772 125.757 80.5479C110.463 77.0091 95.0086 66.7949 82.7253 52.2778L67.1505 64.4625L105.084 113.041Z" fill="url(#paint5_linear_1434_4)"/>
<path d="M68.8365 0.120636C69.2781 13.3911 74.7372 27.9484 84.0901 41.0178L110.704 20.147C100.789 9.53055 87.2612 2.2117 71.7667 0.321655C70.7632 0.201014 69.7999 0.201063 68.8365 0.120636Z" fill="url(#paint6_linear_1434_4)"/>
<path d="M57.1152 127.718C57.2758 113.965 51.7363 98.2419 41.8214 84.3682L41.8616 84.328L15.1676 105.279C25.2029 117.223 39.5735 125.587 56.2723 127.638C56.5527 127.718 56.833 127.718 57.1134 127.718H57.1152Z" fill="url(#paint7_linear_1434_4)"/>
<defs>
<linearGradient id="paint0_linear_1434_4" x1="64" y1="0" x2="64" y2="128" gradientUnits="userSpaceOnUse">
<stop stop-color="#FF1FDB"/>
<stop offset="1" stop-color="#FFB900"/>
</linearGradient>
<linearGradient id="paint1_linear_1434_4" x1="64" y1="0" x2="64" y2="128" gradientUnits="userSpaceOnUse">
<stop stop-color="#FF1FDB"/>
<stop offset="1" stop-color="#FFB900"/>
</linearGradient>
<linearGradient id="paint2_linear_1434_4" x1="64" y1="0" x2="64" y2="128" gradientUnits="userSpaceOnUse">
<stop stop-color="#FF1FDB"/>
<stop offset="1" stop-color="#FFB900"/>
</linearGradient>
<linearGradient id="paint3_linear_1434_4" x1="64" y1="0" x2="64" y2="128" gradientUnits="userSpaceOnUse">
<stop stop-color="#FF1FDB"/>
<stop offset="1" stop-color="#FFB900"/>
</linearGradient>
<linearGradient id="paint4_linear_1434_4" x1="64" y1="0" x2="64" y2="128" gradientUnits="userSpaceOnUse">
<stop stop-color="#FF1FDB"/>
<stop offset="1" stop-color="#FFB900"/>
</linearGradient>
<linearGradient id="paint5_linear_1434_4" x1="64" y1="0" x2="64" y2="128" gradientUnits="userSpaceOnUse">
<stop stop-color="#FF1FDB"/>
<stop offset="1" stop-color="#FFB900"/>
</linearGradient>
<linearGradient id="paint6_linear_1434_4" x1="64" y1="0" x2="64" y2="128" gradientUnits="userSpaceOnUse">
<stop stop-color="#FF1FDB"/>
<stop offset="1" stop-color="#FFB900"/>
</linearGradient>
<linearGradient id="paint7_linear_1434_4" x1="64" y1="0" x2="64" y2="128" gradientUnits="userSpaceOnUse">
<stop stop-color="#FF1FDB"/>
<stop offset="1" stop-color="#FFB900"/>
</linearGradient>
</defs>
</svg>
