<svg width="256" height="256" viewBox="0 0 256 256" fill="none" xmlns="http://www.w3.org/2000/svg">
<path d="M20.6211 197.61L73.768 155.948C53.0551 131.579 27.2041 113.805 1.99546 106.486C1.67433 108.416 1.1926 110.346 0.951757 112.357C-2.82152 143.402 4.80542 173.24 20.6211 197.61Z" fill="url(#paint0_linear_1434_5)"/>
<path d="M52.5736 24.45L124.346 116.298L155.495 91.9284C134.461 62.8137 122.419 30.0798 121.536 0C96.0866 1.20641 72.323 10.0535 52.5736 24.45Z" fill="url(#paint1_linear_1434_5)"/>
<path d="M197.242 235.732L121.617 138.898L96.2472 158.763C118.325 189.487 130.688 224.875 130.207 256C154.612 255.598 177.654 248.359 197.242 235.732Z" fill="url(#paint2_linear_1434_5)"/>
<path d="M231.523 52.7603L178.055 94.6629C200.213 120.721 227.67 138.978 254.725 145.332C254.805 144.689 255.046 144.126 255.046 143.482C259.14 110.025 249.827 78.0949 231.523 52.7603Z" fill="url(#paint3_linear_1434_5)"/>
<path d="M40.21 34.6642C24.3141 49.7041 12.1914 68.9261 5.60827 90.8828L5.52792 90.9633C34.1888 99.006 63.3313 118.952 86.3724 146.136L111.742 126.271L40.21 34.6642Z" fill="url(#paint4_linear_1434_5)"/>
<path d="M210.168 226.081C229.837 209.593 244.609 187.154 251.513 161.096C220.926 154.018 190.017 133.59 165.451 104.556L134.301 128.925L210.168 226.081Z" fill="url(#paint5_linear_1434_5)"/>
<path d="M137.673 0.241272C138.556 26.7823 149.474 55.8968 168.18 82.0357L221.408 40.2939C201.578 19.0611 174.522 4.42339 143.533 0.64331C141.526 0.402029 139.6 0.402127 137.673 0.241272Z" fill="url(#paint6_linear_1434_5)"/>
<path d="M114.23 255.437C114.552 227.931 103.473 196.484 83.6428 168.736L83.7232 168.656L30.3352 210.559C50.4058 234.446 79.1471 251.175 112.545 255.276C113.105 255.437 113.666 255.437 114.227 255.437H114.23Z" fill="url(#paint7_linear_1434_5)"/>
<defs>
<linearGradient id="paint0_linear_1434_5" x1="128" y1="0" x2="128" y2="256" gradientUnits="userSpaceOnUse">
<stop stop-color="#FF1FDB"/>
<stop offset="1" stop-color="#FFB900"/>
</linearGradient>
<linearGradient id="paint1_linear_1434_5" x1="128" y1="0" x2="128" y2="256" gradientUnits="userSpaceOnUse">
<stop stop-color="#FF1FDB"/>
<stop offset="1" stop-color="#FFB900"/>
</linearGradient>
<linearGradient id="paint2_linear_1434_5" x1="128" y1="0" x2="128" y2="256" gradientUnits="userSpaceOnUse">
<stop stop-color="#FF1FDB"/>
<stop offset="1" stop-color="#FFB900"/>
</linearGradient>
<linearGradient id="paint3_linear_1434_5" x1="128" y1="0" x2="128" y2="256" gradientUnits="userSpaceOnUse">
<stop stop-color="#FF1FDB"/>
<stop offset="1" stop-color="#FFB900"/>
</linearGradient>
<linearGradient id="paint4_linear_1434_5" x1="128" y1="0" x2="128" y2="256" gradientUnits="userSpaceOnUse">
<stop stop-color="#FF1FDB"/>
<stop offset="1" stop-color="#FFB900"/>
</linearGradient>
<linearGradient id="paint5_linear_1434_5" x1="128" y1="0" x2="128" y2="256" gradientUnits="userSpaceOnUse">
<stop stop-color="#FF1FDB"/>
<stop offset="1" stop-color="#FFB900"/>
</linearGradient>
<linearGradient id="paint6_linear_1434_5" x1="128" y1="0" x2="128" y2="256" gradientUnits="userSpaceOnUse">
<stop stop-color="#FF1FDB"/>
<stop offset="1" stop-color="#FFB900"/>
</linearGradient>
<linearGradient id="paint7_linear_1434_5" x1="128" y1="0" x2="128" y2="256" gradientUnits="userSpaceOnUse">
<stop stop-color="#FF1FDB"/>
<stop offset="1" stop-color="#FFB900"/>
</linearGradient>
</defs>
</svg>
