<svg width="64" height="64" viewBox="0 0 64 64" fill="none" xmlns="http://www.w3.org/2000/svg">
<path d="M5.15527 49.4025L18.442 38.9871C13.2638 32.8947 6.80104 28.4511 0.498864 26.6214C0.418582 27.104 0.298151 27.5866 0.237939 28.0892C-0.70538 35.8505 1.20136 43.3101 5.15527 49.4025Z" fill="#FF3BB2"/>
<path d="M13.1434 6.11249L31.0865 29.0745L38.8739 22.9821C33.6154 15.7034 30.6048 7.51995 30.384 0C24.0217 0.301602 18.0808 2.51337 13.1434 6.11249Z" fill="#FF3BB2"/>
<path d="M49.3106 58.9331L30.4041 34.7245L24.0618 39.6909C29.5812 47.3717 32.6721 56.2187 32.5516 64C38.6531 63.8995 44.4134 62.0899 49.3106 58.9331Z" fill="#FF3BB2"/>
<path d="M57.8807 13.1901L44.5138 23.6657C50.0533 30.1803 56.9174 34.7446 63.6812 36.3331C63.7012 36.1722 63.7615 36.0314 63.7615 35.8706C64.7851 27.5061 62.4568 19.5237 57.8807 13.1901Z" fill="#FF3BB2"/>
<path d="M10.0525 8.66604C6.07852 12.426 3.04786 17.2315 1.40207 22.7207L1.38198 22.7408C8.54719 24.7515 15.8328 29.738 21.5931 36.5341L27.9354 31.5677L10.0525 8.66604Z" fill="#FF3BB2"/>
<path d="M52.542 56.5203C57.4593 52.3984 61.1523 46.7886 62.8784 40.274C55.2315 38.5046 47.5043 33.3974 41.3627 26.1389L33.5753 32.2312L52.542 56.5203Z" fill="#FF3BB2"/>
<path d="M34.4182 0.060318C34.639 6.69557 37.3686 13.9742 42.0451 20.5089L55.3519 10.0735C50.3944 4.76528 43.6306 1.10585 35.8834 0.160828C35.3816 0.100507 34.8999 0.100532 34.4182 0.060318Z" fill="#FF3BB2"/>
<path d="M28.5576 63.8592C28.6379 56.9827 25.8681 49.1209 20.9107 42.1841L20.9308 42.164L7.58379 52.6397C12.6014 58.6114 19.7868 62.7937 28.1361 63.8191C28.2763 63.8592 28.4165 63.8592 28.5567 63.8592H28.5576Z" fill="#FF3BB2"/>
</svg>
